<?xml version="1.0" encoding="UTF-8"?>
<svg width="100px" height="40px" viewBox="0 0 100 40" version="1.1" xmlns="http://www.w3.org/2000/svg" xmlns:xlink="http://www.w3.org/1999/xlink">
    <rect id="Rectangle" fill="#E62429" x="0" y="0" width="100" height="40"></rect>
    <path d="M84.6256,9.3215694 L84.6256,3.19912143 L67.4834,3.19912143 L64.6643,23.6529655 L61.8747,3.19922082 L55.693,3.19922082 L56.3855,8.65697823 C55.6715,7.25882233 53.1406,3.19922082 47.5709,3.19922082 C47.5342,3.19683556 41.3808,3.19922082 41.3808,3.19922082 L41.3571,33.0123014 L36.8514,3.19922082 L28.7555,3.1945497 L24.0943,34.0849697 L24.0967,3.19902205 L16.3484,3.19902205 L13.5551,20.5502481 L10.8343,3.19922082 L3.0835,3.19922082 L3.0835,36.7821941 L9.1871,36.7821941 L9.1871,20.5952697 L11.9635,36.7817965 L15.2084,36.7817965 L17.9458,20.5952697 L17.9458,36.7817965 L29.7125,36.7817965 L30.4265,31.6142449 L35.1639,31.6142449 L35.8755,36.7817965 L47.4276,36.7888529 L47.437,36.7888529 L47.437,36.7817965 L47.4442,36.7817965 L47.4514,36.7817965 L47.4514,25.8806926 L48.8676,25.6756602 L51.7995,36.7888529 L51.8067,36.7888529 L57.7677,36.7888529 L57.7747,36.7888529 L57.7723,36.7817965 L57.7829,36.7817965 L57.7901,36.7817965 L53.9426,23.7566247 C55.8924,22.3232863 58.0939,18.6832906 57.508,15.2011191 L57.508,15.1988332 C57.515,15.245942 61.1396,36.8032638 61.1396,36.8032638 L68.2461,36.7817965 L73.102,6.3415931 L73.102,36.7818959 L84.6256,36.7818959 L84.6256,30.741938 L79.1556,30.741938 L79.1556,23.0399555 L84.6256,23.0399555 L84.6256,16.9080659 L79.1556,16.9080659 L79.1556,9.3215694 L84.6256,9.3215694 Z M31.1455,26.2887697 L32.8213,11.9314339 L34.5613,26.2887697 L31.1455,26.2887697 Z M48.8874,19.659356 C48.4177,19.8857563 47.9279,19.9989565 47.4511,19.9989565 L47.4511,9.19664176 C47.4594,9.19664176 47.469,9.19442868 47.4808,9.19442868 C47.9588,9.19207003 51.5227,9.33816678 51.5227,14.5388138 C51.5227,17.2592944 50.3106,18.973397 48.8874,19.659356 M96.9234,30.7372668 L96.9234,36.7771254 L85.682,36.7771254 L85.682,3.1945497 L91.7346,3.1945497 L91.7346,30.7372668 L96.9234,30.7372668 Z" id="Shape" fill="#FFFFFF"></path>
</svg>